<mxfile host="app.diagrams.net" modified="2021-12-11T07:17:01.300Z" agent="5.0 (Macintosh; Intel Mac OS X 10_15_7) AppleWebKit/537.36 (KHTML, like Gecko) Chrome/96.0.4664.55 Safari/537.36" etag="mLIblKBM8U1KP0uYEGHm" version="15.8.7" type="github">
  <diagram id="R2lEEEUBdFMjLlhIrx00" name="Page-1">
    <mxGraphModel dx="2564" dy="1631" grid="1" gridSize="10" guides="1" tooltips="1" connect="1" arrows="1" fold="1" page="1" pageScale="1" pageWidth="827" pageHeight="583" math="0" shadow="0" extFonts="Permanent Marker^https://fonts.googleapis.com/css?family=Permanent+Marker">
      <root>
        <mxCell id="0" />
        <mxCell id="1" parent="0" />
        <mxCell id="pg6HYWG1b-laLnxa9u-H-16" value="" style="edgeStyle=orthogonalEdgeStyle;endArrow=ERzeroToMany;startArrow=ERone;endFill=0;startFill=0;exitX=1;exitY=0.5;exitDx=0;exitDy=0;strokeColor=default;labelBackgroundColor=default;fontColor=default;" parent="1" edge="1">
          <mxGeometry width="100" height="100" relative="1" as="geometry">
            <mxPoint x="191" y="76.94000000000005" as="sourcePoint" />
            <mxPoint x="303" y="175" as="targetPoint" />
            <Array as="points">
              <mxPoint x="260" y="77" />
              <mxPoint x="260" y="175" />
            </Array>
          </mxGeometry>
        </mxCell>
        <mxCell id="pg6HYWG1b-laLnxa9u-H-18" value="" style="edgeStyle=orthogonalEdgeStyle;endArrow=ERone;startArrow=ERone;endFill=0;startFill=0;exitX=0.992;exitY=0.74;exitDx=0;exitDy=0;exitPerimeter=0;strokeColor=default;labelBackgroundColor=default;fontColor=default;" parent="1" source="C-vyLk0tnHw3VtMMgP7b-24" edge="1">
          <mxGeometry width="100" height="100" relative="1" as="geometry">
            <mxPoint x="160" y="-20.06" as="sourcePoint" />
            <mxPoint x="60" y="271" as="targetPoint" />
            <Array as="points">
              <mxPoint x="238" y="82" />
              <mxPoint x="238" y="180" />
              <mxPoint x="40" y="180" />
              <mxPoint x="40" y="271" />
            </Array>
          </mxGeometry>
        </mxCell>
        <mxCell id="pg6HYWG1b-laLnxa9u-H-21" value="" style="group" parent="1" vertex="1" connectable="0">
          <mxGeometry x="61" y="29.94" width="130" height="120" as="geometry" />
        </mxCell>
        <mxCell id="C-vyLk0tnHw3VtMMgP7b-23" value="User" style="shape=table;startSize=30;container=1;collapsible=1;childLayout=tableLayout;fixedRows=1;rowLines=0;fontStyle=1;align=center;resizeLast=1;" parent="pg6HYWG1b-laLnxa9u-H-21" vertex="1">
          <mxGeometry width="130" height="120" as="geometry" />
        </mxCell>
        <mxCell id="C-vyLk0tnHw3VtMMgP7b-24" value="" style="shape=partialRectangle;collapsible=0;dropTarget=0;pointerEvents=0;fillColor=none;points=[[0,0.5],[1,0.5]];portConstraint=eastwest;top=0;left=0;right=0;bottom=1;" parent="C-vyLk0tnHw3VtMMgP7b-23" vertex="1">
          <mxGeometry y="30" width="130" height="30" as="geometry" />
        </mxCell>
        <mxCell id="C-vyLk0tnHw3VtMMgP7b-25" value="PK" style="shape=partialRectangle;overflow=hidden;connectable=0;fillColor=none;top=0;left=0;bottom=0;right=0;fontStyle=1;" parent="C-vyLk0tnHw3VtMMgP7b-24" vertex="1">
          <mxGeometry width="30" height="30" as="geometry">
            <mxRectangle width="30" height="30" as="alternateBounds" />
          </mxGeometry>
        </mxCell>
        <mxCell id="C-vyLk0tnHw3VtMMgP7b-26" value="id" style="shape=partialRectangle;overflow=hidden;connectable=0;fillColor=none;top=0;left=0;bottom=0;right=0;align=center;spacingLeft=6;fontStyle=5;fontSize=13;" parent="C-vyLk0tnHw3VtMMgP7b-24" vertex="1">
          <mxGeometry x="30" width="100" height="30" as="geometry">
            <mxRectangle width="100" height="30" as="alternateBounds" />
          </mxGeometry>
        </mxCell>
        <mxCell id="C-vyLk0tnHw3VtMMgP7b-27" value="" style="shape=partialRectangle;collapsible=0;dropTarget=0;pointerEvents=0;fillColor=none;points=[[0,0.5],[1,0.5]];portConstraint=eastwest;top=0;left=0;right=0;bottom=0;" parent="C-vyLk0tnHw3VtMMgP7b-23" vertex="1">
          <mxGeometry y="60" width="130" height="30" as="geometry" />
        </mxCell>
        <mxCell id="C-vyLk0tnHw3VtMMgP7b-28" value="" style="shape=partialRectangle;overflow=hidden;connectable=0;fillColor=none;top=0;left=0;bottom=0;right=0;" parent="C-vyLk0tnHw3VtMMgP7b-27" vertex="1">
          <mxGeometry width="30" height="30" as="geometry">
            <mxRectangle width="30" height="30" as="alternateBounds" />
          </mxGeometry>
        </mxCell>
        <mxCell id="C-vyLk0tnHw3VtMMgP7b-29" value="username" style="shape=partialRectangle;overflow=hidden;connectable=0;fillColor=none;top=1;left=0;bottom=1;right=0;align=center;spacingLeft=6;fontStyle=1;fontSize=13;" parent="C-vyLk0tnHw3VtMMgP7b-27" vertex="1">
          <mxGeometry x="30" width="100" height="30" as="geometry">
            <mxRectangle width="100" height="30" as="alternateBounds" />
          </mxGeometry>
        </mxCell>
        <mxCell id="eXolz-f-tqLtdmMCezY3-33" value="password" style="shape=partialRectangle;overflow=hidden;connectable=0;fillColor=none;top=0;left=0;bottom=1;right=0;align=center;spacingLeft=6;fontStyle=1;fontSize=13;" parent="pg6HYWG1b-laLnxa9u-H-21" vertex="1">
          <mxGeometry x="30" y="90" width="100" height="30" as="geometry">
            <mxRectangle width="220" height="30" as="alternateBounds" />
          </mxGeometry>
        </mxCell>
        <mxCell id="pg6HYWG1b-laLnxa9u-H-32" value="" style="edgeStyle=orthogonalEdgeStyle;endArrow=ERzeroToMany;startArrow=ERone;endFill=0;startFill=0;strokeColor=default;labelBackgroundColor=default;fontColor=default;" parent="1" source="eXolz-f-tqLtdmMCezY3-45" edge="1">
          <mxGeometry width="100" height="100" relative="1" as="geometry">
            <mxPoint x="644" y="70" as="sourcePoint" />
            <mxPoint x="303" y="203" as="targetPoint" />
            <Array as="points">
              <mxPoint x="663" y="70" />
              <mxPoint x="663" y="10" />
              <mxPoint x="503" y="10" />
              <mxPoint x="503" y="80" />
              <mxPoint x="273" y="80" />
              <mxPoint x="273" y="203" />
            </Array>
          </mxGeometry>
        </mxCell>
        <mxCell id="VAwe8sQhlcSzIPdgGldn-16" value="&lt;span style=&quot;font-family: &amp;quot;helvetica&amp;quot; ; font-size: 13px ; font-style: normal ; font-weight: 700 ; letter-spacing: normal ; text-indent: 0px ; text-transform: none ; word-spacing: 0px ; background-color: rgb(248 , 249 , 250) ; display: inline ; float: none&quot;&gt;fat&lt;/span&gt;" style="rounded=0;whiteSpace=wrap;html=1;fillColor=none;strokeColor=default;fontColor=default;align=center;" parent="1" vertex="1">
          <mxGeometry x="333" y="594" width="100" height="30.06" as="geometry" />
        </mxCell>
        <mxCell id="VAwe8sQhlcSzIPdgGldn-17" value="" style="endArrow=none;html=1;rounded=0;exitX=0.231;exitY=0.006;exitDx=0;exitDy=0;exitPerimeter=0;" parent="1" source="VAwe8sQhlcSzIPdgGldn-16" edge="1">
          <mxGeometry width="50" height="50" relative="1" as="geometry">
            <mxPoint x="335" y="544" as="sourcePoint" />
            <mxPoint x="333" y="594" as="targetPoint" />
          </mxGeometry>
        </mxCell>
        <mxCell id="VAwe8sQhlcSzIPdgGldn-18" value="" style="edgeStyle=orthogonalEdgeStyle;endArrow=ERzeroToMany;startArrow=ERone;endFill=0;startFill=0;strokeColor=default;labelBackgroundColor=default;fontColor=default;" parent="1" source="C-vyLk0tnHw3VtMMgP7b-24" target="VAwe8sQhlcSzIPdgGldn-6" edge="1">
          <mxGeometry width="100" height="100" relative="1" as="geometry">
            <mxPoint x="190.99999999999977" y="60.00000000000006" as="sourcePoint" />
            <mxPoint x="290" y="210.0011764705883" as="targetPoint" />
            <Array as="points">
              <mxPoint x="250" y="70" />
              <mxPoint x="250" y="459" />
            </Array>
          </mxGeometry>
        </mxCell>
        <mxCell id="VAwe8sQhlcSzIPdgGldn-19" value="&lt;b&gt;&lt;font style=&quot;font-size: 14px&quot;&gt;&amp;nbsp; &amp;nbsp; &amp;nbsp; &amp;nbsp; &lt;/font&gt;&lt;font style=&quot;font-size: 13px&quot;&gt;date&lt;/font&gt;&lt;/b&gt;" style="rounded=0;whiteSpace=wrap;html=1;fillColor=none;strokeColor=default;fontColor=default;" parent="1" vertex="1">
          <mxGeometry x="303" y="276.47" width="130" height="30.06" as="geometry" />
        </mxCell>
        <mxCell id="eXolz-f-tqLtdmMCezY3-95" value="Record" style="shape=table;startSize=30;container=1;collapsible=1;childLayout=tableLayout;fixedRows=1;rowLines=0;fontStyle=1;align=center;resizeLast=1;fillColor=default;strokeColor=default;fontColor=default;" parent="1" vertex="1">
          <mxGeometry x="303" y="96" width="130" height="242" as="geometry" />
        </mxCell>
        <mxCell id="eXolz-f-tqLtdmMCezY3-96" value="" style="shape=partialRectangle;collapsible=0;dropTarget=0;pointerEvents=0;fillColor=none;points=[[0,0.5],[1,0.5]];portConstraint=eastwest;top=0;left=0;right=0;bottom=1;" parent="eXolz-f-tqLtdmMCezY3-95" vertex="1">
          <mxGeometry y="30" width="130" height="30" as="geometry" />
        </mxCell>
        <mxCell id="eXolz-f-tqLtdmMCezY3-97" value="PK" style="shape=partialRectangle;overflow=hidden;connectable=0;fillColor=none;top=0;left=0;bottom=0;right=0;fontStyle=1;" parent="eXolz-f-tqLtdmMCezY3-96" vertex="1">
          <mxGeometry width="30" height="30" as="geometry">
            <mxRectangle width="30" height="30" as="alternateBounds" />
          </mxGeometry>
        </mxCell>
        <mxCell id="eXolz-f-tqLtdmMCezY3-98" value="id" style="shape=partialRectangle;overflow=hidden;connectable=0;fillColor=none;top=0;left=0;bottom=0;right=0;align=center;spacingLeft=6;fontStyle=5;fontSize=13;" parent="eXolz-f-tqLtdmMCezY3-96" vertex="1">
          <mxGeometry x="30" width="100" height="30" as="geometry">
            <mxRectangle width="100" height="30" as="alternateBounds" />
          </mxGeometry>
        </mxCell>
        <mxCell id="eXolz-f-tqLtdmMCezY3-99" value="" style="shape=partialRectangle;collapsible=0;dropTarget=0;pointerEvents=0;fillColor=none;points=[[0,0.5],[1,0.5]];portConstraint=eastwest;top=0;left=0;right=0;bottom=0;" parent="eXolz-f-tqLtdmMCezY3-95" vertex="1">
          <mxGeometry y="60" width="130" height="30" as="geometry" />
        </mxCell>
        <mxCell id="eXolz-f-tqLtdmMCezY3-100" value="" style="shape=partialRectangle;overflow=hidden;connectable=0;fillColor=none;top=0;left=0;bottom=0;right=0;" parent="eXolz-f-tqLtdmMCezY3-99" vertex="1">
          <mxGeometry width="30" height="30" as="geometry">
            <mxRectangle width="30" height="30" as="alternateBounds" />
          </mxGeometry>
        </mxCell>
        <mxCell id="eXolz-f-tqLtdmMCezY3-101" value="user_id" style="shape=partialRectangle;overflow=hidden;connectable=0;fillColor=none;top=1;left=0;bottom=1;right=0;align=center;spacingLeft=6;fontStyle=1;fontSize=13;" parent="eXolz-f-tqLtdmMCezY3-99" vertex="1">
          <mxGeometry x="30" width="100" height="30" as="geometry">
            <mxRectangle width="100" height="30" as="alternateBounds" />
          </mxGeometry>
        </mxCell>
        <mxCell id="eXolz-f-tqLtdmMCezY3-102" value="FK" style="shape=partialRectangle;overflow=hidden;connectable=0;fillColor=none;top=0;left=0;bottom=1;right=0;fontStyle=1" parent="1" vertex="1">
          <mxGeometry x="303" y="189" width="30" height="30" as="geometry">
            <mxRectangle width="30" height="30" as="alternateBounds" />
          </mxGeometry>
        </mxCell>
        <mxCell id="eXolz-f-tqLtdmMCezY3-103" value="menu_id" style="shape=partialRectangle;overflow=hidden;connectable=0;fillColor=none;top=0;left=0;bottom=1;right=0;align=center;spacingLeft=6;fontStyle=1;fontSize=13;" parent="1" vertex="1">
          <mxGeometry x="333" y="190" width="103" height="29" as="geometry">
            <mxRectangle width="220" height="30" as="alternateBounds" />
          </mxGeometry>
        </mxCell>
        <mxCell id="eXolz-f-tqLtdmMCezY3-106" value="FK" style="shape=partialRectangle;overflow=hidden;connectable=0;fillColor=none;top=0;left=0;bottom=1;right=0;fontStyle=1;" parent="1" vertex="1">
          <mxGeometry x="303" y="156" width="30" height="30" as="geometry">
            <mxRectangle width="30" height="30" as="alternateBounds" />
          </mxGeometry>
        </mxCell>
        <mxCell id="eXolz-f-tqLtdmMCezY3-107" value="" style="shape=partialRectangle;overflow=hidden;connectable=0;fillColor=none;top=0;left=0;bottom=1;right=0;fontStyle=1" parent="1" vertex="1">
          <mxGeometry x="303" y="218" width="30" height="30" as="geometry">
            <mxRectangle width="30" height="30" as="alternateBounds" />
          </mxGeometry>
        </mxCell>
        <mxCell id="eXolz-f-tqLtdmMCezY3-108" value="review" style="shape=partialRectangle;overflow=hidden;connectable=0;fillColor=none;top=0;left=0;bottom=1;right=0;align=center;spacingLeft=6;fontStyle=1;fontSize=13;" parent="1" vertex="1">
          <mxGeometry x="333" y="218" width="100" height="30" as="geometry">
            <mxRectangle width="220" height="30" as="alternateBounds" />
          </mxGeometry>
        </mxCell>
        <mxCell id="eXolz-f-tqLtdmMCezY3-109" value="" style="shape=partialRectangle;overflow=hidden;connectable=0;fillColor=none;top=0;left=0;bottom=0;right=0;" parent="1" vertex="1">
          <mxGeometry x="304" y="248" width="30" height="30" as="geometry">
            <mxRectangle width="30" height="30" as="alternateBounds" />
          </mxGeometry>
        </mxCell>
        <mxCell id="eXolz-f-tqLtdmMCezY3-110" value="liked" style="shape=partialRectangle;overflow=hidden;connectable=0;fillColor=none;top=0;left=0;bottom=0;right=0;align=center;spacingLeft=6;fontStyle=1;fontSize=13;" parent="1" vertex="1">
          <mxGeometry x="333" y="248" width="100" height="30" as="geometry">
            <mxRectangle width="220" height="30" as="alternateBounds" />
          </mxGeometry>
        </mxCell>
        <mxCell id="cXHVGrsgtbEFBU25RFcM-2" value="image" style="shape=partialRectangle;overflow=hidden;connectable=0;fillColor=none;top=0;left=0;bottom=1;right=0;align=center;spacingLeft=6;fontStyle=1;fontSize=13;strokeColor=default;fontColor=default;" parent="1" vertex="1">
          <mxGeometry x="333" y="307.94" width="100" height="30" as="geometry">
            <mxRectangle width="220" height="30" as="alternateBounds" />
          </mxGeometry>
        </mxCell>
        <mxCell id="VAwe8sQhlcSzIPdgGldn-2" value="UserNutrition" style="shape=table;startSize=30;container=1;collapsible=1;childLayout=tableLayout;fixedRows=1;rowLines=0;fontStyle=1;align=center;resizeLast=1;" parent="1" vertex="1">
          <mxGeometry x="303" y="384" width="130" height="271" as="geometry" />
        </mxCell>
        <mxCell id="VAwe8sQhlcSzIPdgGldn-3" value="" style="shape=partialRectangle;collapsible=0;dropTarget=0;pointerEvents=0;fillColor=none;points=[[0,0.5],[1,0.5]];portConstraint=eastwest;top=0;left=0;right=0;bottom=1;" parent="VAwe8sQhlcSzIPdgGldn-2" vertex="1">
          <mxGeometry y="30" width="130" height="30" as="geometry" />
        </mxCell>
        <mxCell id="VAwe8sQhlcSzIPdgGldn-4" value="PK" style="shape=partialRectangle;overflow=hidden;connectable=0;fillColor=none;top=0;left=0;bottom=0;right=0;fontStyle=1;" parent="VAwe8sQhlcSzIPdgGldn-3" vertex="1">
          <mxGeometry width="30" height="30" as="geometry">
            <mxRectangle width="30" height="30" as="alternateBounds" />
          </mxGeometry>
        </mxCell>
        <mxCell id="VAwe8sQhlcSzIPdgGldn-5" value="id" style="shape=partialRectangle;overflow=hidden;connectable=0;fillColor=none;top=0;left=0;bottom=0;right=0;align=center;spacingLeft=6;fontStyle=5;fontSize=13;" parent="VAwe8sQhlcSzIPdgGldn-3" vertex="1">
          <mxGeometry x="30" width="100" height="30" as="geometry">
            <mxRectangle width="100" height="30" as="alternateBounds" />
          </mxGeometry>
        </mxCell>
        <mxCell id="VAwe8sQhlcSzIPdgGldn-6" value="" style="shape=partialRectangle;collapsible=0;dropTarget=0;pointerEvents=0;fillColor=none;points=[[0,0.5],[1,0.5]];portConstraint=eastwest;top=0;left=0;right=0;bottom=0;" parent="VAwe8sQhlcSzIPdgGldn-2" vertex="1">
          <mxGeometry y="60" width="130" height="30" as="geometry" />
        </mxCell>
        <mxCell id="VAwe8sQhlcSzIPdgGldn-7" value="" style="shape=partialRectangle;overflow=hidden;connectable=0;fillColor=none;top=0;left=0;bottom=0;right=0;" parent="VAwe8sQhlcSzIPdgGldn-6" vertex="1">
          <mxGeometry width="30" height="30" as="geometry">
            <mxRectangle width="30" height="30" as="alternateBounds" />
          </mxGeometry>
        </mxCell>
        <mxCell id="VAwe8sQhlcSzIPdgGldn-8" value="user_id" style="shape=partialRectangle;overflow=hidden;connectable=0;fillColor=none;top=1;left=0;bottom=1;right=0;align=center;spacingLeft=6;fontStyle=1;fontSize=13;" parent="VAwe8sQhlcSzIPdgGldn-6" vertex="1">
          <mxGeometry x="30" width="100" height="30" as="geometry">
            <mxRectangle width="100" height="30" as="alternateBounds" />
          </mxGeometry>
        </mxCell>
        <mxCell id="VAwe8sQhlcSzIPdgGldn-9" value="" style="shape=partialRectangle;overflow=hidden;connectable=0;fillColor=none;top=0;left=0;bottom=1;right=0;fontStyle=1" parent="1" vertex="1">
          <mxGeometry x="303" y="475" width="30" height="30" as="geometry">
            <mxRectangle width="30" height="30" as="alternateBounds" />
          </mxGeometry>
        </mxCell>
        <mxCell id="VAwe8sQhlcSzIPdgGldn-10" value="calories" style="shape=partialRectangle;overflow=hidden;connectable=0;fillColor=none;top=0;left=0;bottom=1;right=0;align=center;spacingLeft=6;fontStyle=1;fontSize=13;strokeColor=default;fontColor=default;" parent="1" vertex="1">
          <mxGeometry x="333" y="504" width="100" height="30" as="geometry">
            <mxRectangle width="220" height="30" as="alternateBounds" />
          </mxGeometry>
        </mxCell>
        <mxCell id="VAwe8sQhlcSzIPdgGldn-11" value="FK" style="shape=partialRectangle;overflow=hidden;connectable=0;fillColor=none;top=0;left=0;bottom=1;right=0;fontStyle=1;" parent="1" vertex="1">
          <mxGeometry x="303" y="443.94" width="30" height="30" as="geometry">
            <mxRectangle width="30" height="30" as="alternateBounds" />
          </mxGeometry>
        </mxCell>
        <mxCell id="VAwe8sQhlcSzIPdgGldn-12" value="" style="shape=partialRectangle;overflow=hidden;connectable=0;fillColor=none;top=0;left=0;bottom=1;right=0;fontStyle=1;strokeColor=default;fontColor=default;" parent="1" vertex="1">
          <mxGeometry x="303" y="504" width="30" height="30" as="geometry">
            <mxRectangle width="30" height="30" as="alternateBounds" />
          </mxGeometry>
        </mxCell>
        <mxCell id="VAwe8sQhlcSzIPdgGldn-13" value="carbs" style="shape=partialRectangle;overflow=hidden;connectable=0;fillColor=none;top=0;left=0;bottom=1;right=0;align=center;spacingLeft=6;fontStyle=1;fontSize=13;strokeColor=default;fontColor=default;" parent="1" vertex="1">
          <mxGeometry x="333" y="533" width="100" height="30" as="geometry">
            <mxRectangle width="220" height="30" as="alternateBounds" />
          </mxGeometry>
        </mxCell>
        <mxCell id="VAwe8sQhlcSzIPdgGldn-14" value="" style="shape=partialRectangle;overflow=hidden;connectable=0;fillColor=none;top=0;left=0;bottom=0;right=0;" parent="1" vertex="1">
          <mxGeometry x="303" y="534" width="30" height="30" as="geometry">
            <mxRectangle width="30" height="30" as="alternateBounds" />
          </mxGeometry>
        </mxCell>
        <mxCell id="VAwe8sQhlcSzIPdgGldn-15" value="protein" style="shape=partialRectangle;overflow=hidden;connectable=0;fillColor=none;top=0;left=0;bottom=0;right=0;align=center;spacingLeft=6;fontStyle=1;fontSize=13;strokeColor=default;fontColor=default;" parent="1" vertex="1">
          <mxGeometry x="333" y="563" width="100" height="30" as="geometry">
            <mxRectangle width="220" height="30" as="alternateBounds" />
          </mxGeometry>
        </mxCell>
        <mxCell id="pg6HYWG1b-laLnxa9u-H-19" value="weight" style="shape=partialRectangle;overflow=hidden;connectable=0;fillColor=none;top=0;left=0;bottom=1;right=0;align=center;spacingLeft=6;fontStyle=1;fontSize=13;strokeColor=default;fontColor=default;" parent="1" vertex="1">
          <mxGeometry x="91" y="371.32" width="120" height="28.31" as="geometry">
            <mxRectangle width="220" height="30" as="alternateBounds" />
          </mxGeometry>
        </mxCell>
        <mxCell id="pg6HYWG1b-laLnxa9u-H-2" value="Profile" style="shape=table;startSize=30;container=1;collapsible=1;childLayout=tableLayout;fixedRows=1;rowLines=0;fontStyle=1;align=center;resizeLast=1;fillColor=default;strokeColor=default;fontColor=default;" parent="1" vertex="1">
          <mxGeometry x="61" y="195.44" width="149" height="231.56" as="geometry" />
        </mxCell>
        <mxCell id="pg6HYWG1b-laLnxa9u-H-3" value="" style="shape=partialRectangle;collapsible=0;dropTarget=0;pointerEvents=0;fillColor=none;points=[[0,0.5],[1,0.5]];portConstraint=eastwest;top=0;left=0;right=0;bottom=1;" parent="pg6HYWG1b-laLnxa9u-H-2" vertex="1">
          <mxGeometry y="30" width="149" height="30" as="geometry" />
        </mxCell>
        <mxCell id="pg6HYWG1b-laLnxa9u-H-4" value="PK" style="shape=partialRectangle;overflow=hidden;connectable=0;fillColor=none;top=0;left=0;bottom=0;right=0;fontStyle=1;" parent="pg6HYWG1b-laLnxa9u-H-3" vertex="1">
          <mxGeometry width="30" height="30" as="geometry">
            <mxRectangle width="30" height="30" as="alternateBounds" />
          </mxGeometry>
        </mxCell>
        <mxCell id="pg6HYWG1b-laLnxa9u-H-5" value="id" style="shape=partialRectangle;overflow=hidden;connectable=0;fillColor=none;top=0;left=0;bottom=0;right=0;align=center;spacingLeft=6;fontStyle=5;fontSize=13;" parent="pg6HYWG1b-laLnxa9u-H-3" vertex="1">
          <mxGeometry x="30" width="119" height="30" as="geometry">
            <mxRectangle width="119" height="30" as="alternateBounds" />
          </mxGeometry>
        </mxCell>
        <mxCell id="pg6HYWG1b-laLnxa9u-H-6" value="" style="shape=partialRectangle;collapsible=0;dropTarget=0;pointerEvents=0;fillColor=none;points=[[0,0.5],[1,0.5]];portConstraint=eastwest;top=0;left=0;right=0;bottom=0;strokeColor=default;fontColor=default;" parent="pg6HYWG1b-laLnxa9u-H-2" vertex="1">
          <mxGeometry y="60" width="149" height="30" as="geometry" />
        </mxCell>
        <mxCell id="pg6HYWG1b-laLnxa9u-H-7" value="" style="shape=partialRectangle;overflow=hidden;connectable=0;fillColor=none;top=0;left=0;bottom=0;right=0;" parent="pg6HYWG1b-laLnxa9u-H-6" vertex="1">
          <mxGeometry width="30" height="30" as="geometry">
            <mxRectangle width="30" height="30" as="alternateBounds" />
          </mxGeometry>
        </mxCell>
        <mxCell id="pg6HYWG1b-laLnxa9u-H-8" value="user_id" style="shape=partialRectangle;overflow=hidden;connectable=0;fillColor=none;top=1;left=0;bottom=1;right=0;align=center;spacingLeft=6;fontStyle=1;fontSize=13;strokeColor=default;fontColor=default;" parent="pg6HYWG1b-laLnxa9u-H-6" vertex="1">
          <mxGeometry x="30" width="119" height="30" as="geometry">
            <mxRectangle width="119" height="30" as="alternateBounds" />
          </mxGeometry>
        </mxCell>
        <mxCell id="pg6HYWG1b-laLnxa9u-H-10" value="age" style="shape=partialRectangle;overflow=hidden;connectable=0;fillColor=none;top=0;left=0;bottom=1;right=0;align=center;spacingLeft=6;fontStyle=1;fontSize=13;strokeColor=default;fontColor=default;" parent="1" vertex="1">
          <mxGeometry x="91" y="284.35" width="120" height="29.31" as="geometry">
            <mxRectangle width="220" height="30" as="alternateBounds" />
          </mxGeometry>
        </mxCell>
        <mxCell id="pg6HYWG1b-laLnxa9u-H-11" value="FK" style="shape=partialRectangle;overflow=hidden;connectable=0;fillColor=none;top=0;left=0;bottom=1;right=0;fontStyle=1;strokeColor=default;fontColor=default;" parent="1" vertex="1">
          <mxGeometry x="61" y="257" width="29" height="29" as="geometry">
            <mxRectangle width="30" height="30" as="alternateBounds" />
          </mxGeometry>
        </mxCell>
        <mxCell id="pg6HYWG1b-laLnxa9u-H-13" value="sex" style="shape=partialRectangle;overflow=hidden;connectable=0;fillColor=none;top=0;left=0;bottom=1;right=0;align=center;spacingLeft=6;fontStyle=1;fontSize=13;strokeColor=default;fontColor=default;" parent="1" vertex="1">
          <mxGeometry x="91" y="312.69" width="120" height="29.31" as="geometry">
            <mxRectangle width="220" height="30" as="alternateBounds" />
          </mxGeometry>
        </mxCell>
        <mxCell id="pg6HYWG1b-laLnxa9u-H-14" value="" style="shape=partialRectangle;overflow=hidden;connectable=0;fillColor=none;top=0;left=0;bottom=0;right=0;" parent="1" vertex="1">
          <mxGeometry x="61" y="342.0025" width="34.38461538461538" height="29.3125" as="geometry">
            <mxRectangle width="30" height="30" as="alternateBounds" />
          </mxGeometry>
        </mxCell>
        <mxCell id="pg6HYWG1b-laLnxa9u-H-15" value="height" style="shape=partialRectangle;overflow=hidden;connectable=0;fillColor=none;top=0;left=0;bottom=1;right=0;align=center;spacingLeft=6;fontStyle=1;fontSize=13;strokeColor=default;fontColor=default;" parent="1" vertex="1">
          <mxGeometry x="91" y="342" width="120" height="29.31" as="geometry">
            <mxRectangle width="220" height="30" as="alternateBounds" />
          </mxGeometry>
        </mxCell>
        <mxCell id="cXHVGrsgtbEFBU25RFcM-28" value="" style="group;fontColor=default;" parent="1" vertex="1" connectable="0">
          <mxGeometry x="103.5" y="176" width="44.99795854172976" height="2.0000238170131297" as="geometry" />
        </mxCell>
        <mxCell id="cXHVGrsgtbEFBU25RFcM-29" value="" style="endArrow=none;html=1;rounded=0;dashed=1;dashPattern=1 2;labelBackgroundColor=default;fontColor=default;strokeColor=default;" parent="cXHVGrsgtbEFBU25RFcM-28" edge="1">
          <mxGeometry relative="1" as="geometry">
            <mxPoint as="sourcePoint" />
            <mxPoint x="40" as="targetPoint" />
          </mxGeometry>
        </mxCell>
        <mxCell id="cXHVGrsgtbEFBU25RFcM-30" value="1" style="resizable=0;html=1;align=right;verticalAlign=bottom;fontColor=default;strokeColor=default;fillColor=default;labelBackgroundColor=default;" parent="cXHVGrsgtbEFBU25RFcM-29" connectable="0" vertex="1">
          <mxGeometry x="1" relative="1" as="geometry">
            <mxPoint x="-38" y="3" as="offset" />
          </mxGeometry>
        </mxCell>
        <mxCell id="cXHVGrsgtbEFBU25RFcM-31" value="1" style="resizable=0;html=1;align=right;verticalAlign=bottom;fontColor=default;strokeColor=default;fillColor=default;labelBackgroundColor=default;" parent="cXHVGrsgtbEFBU25RFcM-28" connectable="0" vertex="1">
          <mxGeometry x="39.99795854172976" y="-6.99997618298687" as="geometry">
            <mxPoint x="5" y="9" as="offset" />
          </mxGeometry>
        </mxCell>
        <mxCell id="cXHVGrsgtbEFBU25RFcM-32" value="date" style="shape=partialRectangle;overflow=hidden;connectable=0;fillColor=none;top=0;left=0;bottom=1;right=0;align=center;spacingLeft=6;fontStyle=1;fontSize=13;strokeColor=default;fontColor=default;" parent="1" vertex="1">
          <mxGeometry x="333" y="475" width="100" height="30" as="geometry">
            <mxRectangle width="220" height="30" as="alternateBounds" />
          </mxGeometry>
        </mxCell>
        <mxCell id="dUuwYZKE5EoLuHukErY7-14" value="int" style="shape=partialRectangle;overflow=hidden;connectable=0;fillColor=none;top=1;left=0;bottom=1;right=1;fontStyle=1;strokeColor=default;fontColor=default;" parent="1" vertex="1">
          <mxGeometry x="433" y="505" width="30" height="29" as="geometry">
            <mxRectangle width="30" height="30" as="alternateBounds" />
          </mxGeometry>
        </mxCell>
        <mxCell id="dUuwYZKE5EoLuHukErY7-16" value="date" style="shape=partialRectangle;overflow=hidden;connectable=0;fillColor=none;top=1;left=0;bottom=1;right=1;fontStyle=1;strokeColor=default;fontColor=default;" parent="1" vertex="1">
          <mxGeometry x="433" y="473.94" width="30" height="31.06" as="geometry">
            <mxRectangle width="30" height="30" as="alternateBounds" />
          </mxGeometry>
        </mxCell>
        <mxCell id="dUuwYZKE5EoLuHukErY7-17" value="int" style="shape=partialRectangle;overflow=hidden;connectable=0;fillColor=none;top=1;left=0;bottom=1;right=1;fontStyle=1;strokeColor=default;fontColor=default;" parent="1" vertex="1">
          <mxGeometry x="433" y="534" width="30" height="29" as="geometry">
            <mxRectangle width="30" height="30" as="alternateBounds" />
          </mxGeometry>
        </mxCell>
        <mxCell id="dUuwYZKE5EoLuHukErY7-20" value="int" style="shape=partialRectangle;overflow=hidden;connectable=0;fillColor=none;top=1;left=0;bottom=1;right=1;fontStyle=1;strokeColor=default;fontColor=default;" parent="1" vertex="1">
          <mxGeometry x="433" y="563" width="30" height="31" as="geometry">
            <mxRectangle width="30" height="30" as="alternateBounds" />
          </mxGeometry>
        </mxCell>
        <mxCell id="dUuwYZKE5EoLuHukErY7-22" value="int" style="shape=partialRectangle;overflow=hidden;connectable=0;fillColor=none;top=1;left=0;bottom=1;right=1;fontStyle=1;strokeColor=default;fontColor=default;" parent="1" vertex="1">
          <mxGeometry x="433" y="594" width="30" height="31" as="geometry">
            <mxRectangle width="30" height="30" as="alternateBounds" />
          </mxGeometry>
        </mxCell>
        <mxCell id="dUuwYZKE5EoLuHukErY7-23" value="char&#xa;M=32" style="shape=partialRectangle;overflow=hidden;connectable=0;fillColor=none;top=1;left=0;bottom=1;right=1;fontStyle=1;strokeColor=default;fontColor=default;" parent="1" vertex="1">
          <mxGeometry x="191" y="90" width="30" height="30" as="geometry">
            <mxRectangle width="30" height="30" as="alternateBounds" />
          </mxGeometry>
        </mxCell>
        <mxCell id="dUuwYZKE5EoLuHukErY7-24" value="char&#xa;M=32" style="shape=partialRectangle;overflow=hidden;connectable=0;fillColor=none;top=1;left=0;bottom=1;right=1;fontStyle=1;strokeColor=default;fontColor=default;" parent="1" vertex="1">
          <mxGeometry x="191" y="119.94" width="30" height="30" as="geometry">
            <mxRectangle width="30" height="30" as="alternateBounds" />
          </mxGeometry>
        </mxCell>
        <mxCell id="dUuwYZKE5EoLuHukErY7-25" value="int" style="shape=partialRectangle;overflow=hidden;connectable=0;fillColor=none;top=1;left=0;bottom=1;right=1;fontStyle=1;strokeColor=default;fontColor=default;" parent="1" vertex="1">
          <mxGeometry x="211" y="285.35" width="29" height="29" as="geometry">
            <mxRectangle width="30" height="30" as="alternateBounds" />
          </mxGeometry>
        </mxCell>
        <mxCell id="dUuwYZKE5EoLuHukErY7-26" value="int" style="shape=partialRectangle;overflow=hidden;connectable=0;fillColor=none;top=0;left=0;bottom=1;right=1;fontStyle=1;strokeColor=default;fontColor=default;" parent="1" vertex="1">
          <mxGeometry x="210" y="342.06" width="30" height="30" as="geometry">
            <mxRectangle width="30" height="30" as="alternateBounds" />
          </mxGeometry>
        </mxCell>
        <mxCell id="dUuwYZKE5EoLuHukErY7-27" value="bool" style="shape=partialRectangle;overflow=hidden;connectable=0;fillColor=none;top=0;left=0;bottom=1;right=1;fontStyle=1;strokeColor=default;fontColor=default;" parent="1" vertex="1">
          <mxGeometry x="210" y="312" width="30" height="30.06" as="geometry">
            <mxRectangle width="30" height="30" as="alternateBounds" />
          </mxGeometry>
        </mxCell>
        <mxCell id="dUuwYZKE5EoLuHukErY7-28" value="int" style="shape=partialRectangle;overflow=hidden;connectable=0;fillColor=none;top=0;left=0;bottom=1;right=1;fontStyle=1;strokeColor=default;fontColor=default;" parent="1" vertex="1">
          <mxGeometry x="210" y="372.06" width="30" height="27.94" as="geometry">
            <mxRectangle width="30" height="30" as="alternateBounds" />
          </mxGeometry>
        </mxCell>
        <mxCell id="dUuwYZKE5EoLuHukErY7-31" value="text" style="shape=partialRectangle;overflow=hidden;connectable=0;fillColor=none;top=1;left=0;bottom=1;right=1;fontStyle=1;strokeColor=default;fontColor=default;" parent="1" vertex="1">
          <mxGeometry x="433" y="219" width="30" height="29" as="geometry">
            <mxRectangle width="30" height="30" as="alternateBounds" />
          </mxGeometry>
        </mxCell>
        <mxCell id="dUuwYZKE5EoLuHukErY7-32" value="bool" style="shape=partialRectangle;overflow=hidden;connectable=0;fillColor=none;top=0;left=0;bottom=1;right=1;fontStyle=1;strokeColor=default;fontColor=default;" parent="1" vertex="1">
          <mxGeometry x="433" y="247" width="30" height="30" as="geometry">
            <mxRectangle width="30" height="30" as="alternateBounds" />
          </mxGeometry>
        </mxCell>
        <mxCell id="dUuwYZKE5EoLuHukErY7-33" value="date" style="shape=partialRectangle;overflow=hidden;connectable=0;fillColor=none;top=0;left=0;bottom=1;right=1;fontStyle=1;strokeColor=default;fontColor=default;" parent="1" vertex="1">
          <mxGeometry x="433" y="275" width="30" height="32" as="geometry">
            <mxRectangle width="30" height="30" as="alternateBounds" />
          </mxGeometry>
        </mxCell>
        <mxCell id="dUuwYZKE5EoLuHukErY7-34" value="float" style="shape=partialRectangle;overflow=hidden;connectable=0;fillColor=none;top=1;left=0;bottom=0;right=1;fontStyle=1;strokeColor=default;fontColor=default;" parent="1" vertex="1">
          <mxGeometry x="640" y="119.94" width="30" height="32" as="geometry">
            <mxRectangle width="30" height="30" as="alternateBounds" />
          </mxGeometry>
        </mxCell>
        <mxCell id="dUuwYZKE5EoLuHukErY7-35" value="float" style="shape=partialRectangle;overflow=hidden;connectable=0;fillColor=none;top=1;left=0;bottom=1;right=1;fontStyle=1;strokeColor=default;fontColor=default;" parent="1" vertex="1">
          <mxGeometry x="640" y="150.94" width="30" height="29" as="geometry">
            <mxRectangle width="30" height="30" as="alternateBounds" />
          </mxGeometry>
        </mxCell>
        <mxCell id="dUuwYZKE5EoLuHukErY7-36" value="float" style="shape=partialRectangle;overflow=hidden;connectable=0;fillColor=none;top=1;left=0;bottom=1;right=1;fontStyle=1;strokeColor=default;fontColor=default;" parent="1" vertex="1">
          <mxGeometry x="640" y="179.94" width="30" height="31" as="geometry">
            <mxRectangle width="30" height="30" as="alternateBounds" />
          </mxGeometry>
        </mxCell>
        <mxCell id="dUuwYZKE5EoLuHukErY7-37" value="float" style="shape=partialRectangle;overflow=hidden;connectable=0;fillColor=none;top=0;left=0;bottom=1;right=1;fontStyle=1;strokeColor=default;fontColor=default;" parent="1" vertex="1">
          <mxGeometry x="640" y="210" width="30" height="29.94" as="geometry">
            <mxRectangle width="30" height="30" as="alternateBounds" />
          </mxGeometry>
        </mxCell>
        <mxCell id="dUuwYZKE5EoLuHukErY7-38" value="char&#xa;M=32" style="shape=partialRectangle;overflow=hidden;connectable=0;fillColor=none;top=1;left=0;bottom=1;right=1;fontStyle=1;strokeColor=default;fontColor=default;" parent="1" vertex="1">
          <mxGeometry x="640" y="90" width="30" height="30" as="geometry">
            <mxRectangle width="30" height="30" as="alternateBounds" />
          </mxGeometry>
        </mxCell>
        <mxCell id="s50UIAmwYVXwSAdXFC9_-1" value="" style="group" parent="1" vertex="1" connectable="0">
          <mxGeometry x="61" y="459" width="136" height="120" as="geometry" />
        </mxCell>
        <mxCell id="s50UIAmwYVXwSAdXFC9_-2" value="Preference" style="shape=table;startSize=30;container=1;collapsible=1;childLayout=tableLayout;fixedRows=1;rowLines=0;fontStyle=1;align=center;resizeLast=1;" parent="s50UIAmwYVXwSAdXFC9_-1" vertex="1">
          <mxGeometry width="136" height="120" as="geometry">
            <mxRectangle width="90" height="30" as="alternateBounds" />
          </mxGeometry>
        </mxCell>
        <mxCell id="s50UIAmwYVXwSAdXFC9_-3" value="" style="shape=partialRectangle;collapsible=0;dropTarget=0;pointerEvents=0;fillColor=none;points=[[0,0.5],[1,0.5]];portConstraint=eastwest;top=0;left=0;right=0;bottom=1;" parent="s50UIAmwYVXwSAdXFC9_-2" vertex="1">
          <mxGeometry y="30" width="136" height="30" as="geometry" />
        </mxCell>
        <mxCell id="s50UIAmwYVXwSAdXFC9_-4" value="PK" style="shape=partialRectangle;overflow=hidden;connectable=0;fillColor=none;top=0;left=0;bottom=0;right=0;fontStyle=1;" parent="s50UIAmwYVXwSAdXFC9_-3" vertex="1">
          <mxGeometry width="30" height="30" as="geometry">
            <mxRectangle width="30" height="30" as="alternateBounds" />
          </mxGeometry>
        </mxCell>
        <mxCell id="s50UIAmwYVXwSAdXFC9_-5" value="id" style="shape=partialRectangle;overflow=hidden;connectable=0;fillColor=none;top=0;left=0;bottom=0;right=0;align=center;spacingLeft=6;fontStyle=5;fontSize=13;" parent="s50UIAmwYVXwSAdXFC9_-3" vertex="1">
          <mxGeometry x="30" width="106" height="30" as="geometry">
            <mxRectangle width="106" height="30" as="alternateBounds" />
          </mxGeometry>
        </mxCell>
        <mxCell id="s50UIAmwYVXwSAdXFC9_-6" value="" style="shape=partialRectangle;collapsible=0;dropTarget=0;pointerEvents=0;fillColor=none;points=[[0,0.5],[1,0.5]];portConstraint=eastwest;top=0;left=0;right=0;bottom=0;" parent="s50UIAmwYVXwSAdXFC9_-2" vertex="1">
          <mxGeometry y="60" width="136" height="30" as="geometry" />
        </mxCell>
        <mxCell id="s50UIAmwYVXwSAdXFC9_-7" value="" style="shape=partialRectangle;overflow=hidden;connectable=0;fillColor=none;top=0;left=0;bottom=0;right=0;" parent="s50UIAmwYVXwSAdXFC9_-6" vertex="1">
          <mxGeometry width="30" height="30" as="geometry">
            <mxRectangle width="30" height="30" as="alternateBounds" />
          </mxGeometry>
        </mxCell>
        <mxCell id="s50UIAmwYVXwSAdXFC9_-8" value="user_id" style="shape=partialRectangle;overflow=hidden;connectable=0;fillColor=none;top=1;left=0;bottom=1;right=0;align=center;spacingLeft=6;fontStyle=1;fontSize=13;" parent="s50UIAmwYVXwSAdXFC9_-6" vertex="1">
          <mxGeometry x="30" width="106" height="30" as="geometry">
            <mxRectangle width="106" height="30" as="alternateBounds" />
          </mxGeometry>
        </mxCell>
        <mxCell id="s50UIAmwYVXwSAdXFC9_-9" value="ingredient" style="shape=partialRectangle;overflow=hidden;connectable=0;fillColor=none;top=0;left=0;bottom=1;right=0;align=center;spacingLeft=6;fontStyle=1;fontSize=13;" parent="s50UIAmwYVXwSAdXFC9_-1" vertex="1">
          <mxGeometry x="30" y="90" width="100" height="30" as="geometry">
            <mxRectangle width="220" height="30" as="alternateBounds" />
          </mxGeometry>
        </mxCell>
        <mxCell id="s50UIAmwYVXwSAdXFC9_-10" value="FK" style="shape=partialRectangle;overflow=hidden;connectable=0;fillColor=none;top=0;left=0;bottom=1;right=0;fontStyle=1;strokeColor=default;fontColor=default;" parent="s50UIAmwYVXwSAdXFC9_-1" vertex="1">
          <mxGeometry y="61" width="29" height="29" as="geometry">
            <mxRectangle width="30" height="30" as="alternateBounds" />
          </mxGeometry>
        </mxCell>
        <mxCell id="s50UIAmwYVXwSAdXFC9_-13" value="" style="shape=partialRectangle;overflow=hidden;connectable=0;fillColor=none;top=0;left=0;bottom=1;right=0;fontStyle=1;strokeColor=default;fontColor=default;" parent="s50UIAmwYVXwSAdXFC9_-1" vertex="1">
          <mxGeometry x="1" y="90" width="29" height="30" as="geometry">
            <mxRectangle width="30" height="30" as="alternateBounds" />
          </mxGeometry>
        </mxCell>
        <mxCell id="eXolz-f-tqLtdmMCezY3-44" value="Menu" style="shape=table;startSize=30;container=1;collapsible=1;childLayout=tableLayout;fixedRows=1;rowLines=0;fontStyle=1;align=center;resizeLast=1;" parent="1" vertex="1">
          <mxGeometry x="510" y="29.94" width="130" height="300.06" as="geometry" />
        </mxCell>
        <mxCell id="eXolz-f-tqLtdmMCezY3-45" value="" style="shape=partialRectangle;collapsible=0;dropTarget=0;pointerEvents=0;fillColor=none;points=[[0,0.5],[1,0.5]];portConstraint=eastwest;top=0;left=0;right=0;bottom=1;" parent="eXolz-f-tqLtdmMCezY3-44" vertex="1">
          <mxGeometry y="30" width="130" height="30" as="geometry" />
        </mxCell>
        <mxCell id="eXolz-f-tqLtdmMCezY3-46" value="PK" style="shape=partialRectangle;overflow=hidden;connectable=0;fillColor=none;top=0;left=0;bottom=0;right=0;fontStyle=1;" parent="eXolz-f-tqLtdmMCezY3-45" vertex="1">
          <mxGeometry width="30" height="30" as="geometry">
            <mxRectangle width="30" height="30" as="alternateBounds" />
          </mxGeometry>
        </mxCell>
        <mxCell id="eXolz-f-tqLtdmMCezY3-47" value="id" style="shape=partialRectangle;overflow=hidden;connectable=0;fillColor=none;top=0;left=0;bottom=0;right=0;align=center;spacingLeft=6;fontStyle=5;fontSize=13;" parent="eXolz-f-tqLtdmMCezY3-45" vertex="1">
          <mxGeometry x="30" width="100" height="30" as="geometry">
            <mxRectangle width="100" height="30" as="alternateBounds" />
          </mxGeometry>
        </mxCell>
        <mxCell id="eXolz-f-tqLtdmMCezY3-48" value="" style="shape=partialRectangle;collapsible=0;dropTarget=0;pointerEvents=0;fillColor=none;points=[[0,0.5],[1,0.5]];portConstraint=eastwest;top=0;left=0;right=0;bottom=0;" parent="eXolz-f-tqLtdmMCezY3-44" vertex="1">
          <mxGeometry y="60" width="130" height="30" as="geometry" />
        </mxCell>
        <mxCell id="eXolz-f-tqLtdmMCezY3-49" value="" style="shape=partialRectangle;overflow=hidden;connectable=0;fillColor=none;top=0;left=0;bottom=0;right=0;" parent="eXolz-f-tqLtdmMCezY3-48" vertex="1">
          <mxGeometry width="30" height="30" as="geometry">
            <mxRectangle width="30" height="30" as="alternateBounds" />
          </mxGeometry>
        </mxCell>
        <mxCell id="eXolz-f-tqLtdmMCezY3-50" value="name" style="shape=partialRectangle;overflow=hidden;connectable=0;fillColor=none;top=1;left=0;bottom=1;right=0;align=center;spacingLeft=6;fontStyle=1;fontSize=13;" parent="eXolz-f-tqLtdmMCezY3-48" vertex="1">
          <mxGeometry x="30" width="100" height="30" as="geometry">
            <mxRectangle width="100" height="30" as="alternateBounds" />
          </mxGeometry>
        </mxCell>
        <mxCell id="eXolz-f-tqLtdmMCezY3-51" value="" style="shape=partialRectangle;overflow=hidden;connectable=0;fillColor=none;top=0;left=0;bottom=0;right=0;" parent="1" vertex="1">
          <mxGeometry x="510" y="120.94" width="30" height="30" as="geometry">
            <mxRectangle width="30" height="30" as="alternateBounds" />
          </mxGeometry>
        </mxCell>
        <mxCell id="eXolz-f-tqLtdmMCezY3-52" value="calories" style="shape=partialRectangle;overflow=hidden;connectable=0;fillColor=none;top=0;left=0;bottom=1;right=0;align=center;spacingLeft=6;fontStyle=1;fontSize=13;" parent="1" vertex="1">
          <mxGeometry x="540" y="120.94" width="100" height="30" as="geometry">
            <mxRectangle width="220" height="30" as="alternateBounds" />
          </mxGeometry>
        </mxCell>
        <mxCell id="eXolz-f-tqLtdmMCezY3-53" value="" style="shape=partialRectangle;overflow=hidden;connectable=0;fillColor=none;top=0;left=0;bottom=0;right=0;" parent="1" vertex="1">
          <mxGeometry x="510" y="149.94" width="30" height="30" as="geometry">
            <mxRectangle width="30" height="30" as="alternateBounds" />
          </mxGeometry>
        </mxCell>
        <mxCell id="eXolz-f-tqLtdmMCezY3-54" value="carbs" style="shape=partialRectangle;overflow=hidden;connectable=0;fillColor=none;top=0;left=0;bottom=1;right=0;align=center;spacingLeft=6;fontStyle=1;fontSize=13;" parent="1" vertex="1">
          <mxGeometry x="540" y="149.94" width="100" height="30" as="geometry">
            <mxRectangle width="220" height="30" as="alternateBounds" />
          </mxGeometry>
        </mxCell>
        <mxCell id="eXolz-f-tqLtdmMCezY3-55" value="" style="shape=partialRectangle;overflow=hidden;connectable=0;fillColor=none;top=0;left=0;bottom=0;right=0;" parent="1" vertex="1">
          <mxGeometry x="510" y="180.94" width="30" height="30" as="geometry">
            <mxRectangle width="30" height="30" as="alternateBounds" />
          </mxGeometry>
        </mxCell>
        <mxCell id="eXolz-f-tqLtdmMCezY3-56" value="protein" style="shape=partialRectangle;overflow=hidden;connectable=0;fillColor=none;top=0;left=0;bottom=1;right=0;align=center;spacingLeft=6;fontStyle=1;fontSize=13;" parent="1" vertex="1">
          <mxGeometry x="540" y="180.94" width="100" height="30" as="geometry">
            <mxRectangle width="220" height="30" as="alternateBounds" />
          </mxGeometry>
        </mxCell>
        <mxCell id="eXolz-f-tqLtdmMCezY3-57" value="" style="shape=partialRectangle;overflow=hidden;connectable=0;fillColor=none;top=0;left=0;bottom=0;right=0;" parent="1" vertex="1">
          <mxGeometry x="510" y="209.94" width="30" height="30" as="geometry">
            <mxRectangle width="30" height="30" as="alternateBounds" />
          </mxGeometry>
        </mxCell>
        <mxCell id="eXolz-f-tqLtdmMCezY3-58" value="fat" style="shape=partialRectangle;overflow=hidden;connectable=0;fillColor=none;top=0;left=0;bottom=1;right=0;align=center;spacingLeft=6;fontStyle=1;fontSize=13;" parent="1" vertex="1">
          <mxGeometry x="540" y="209.94" width="100" height="30" as="geometry">
            <mxRectangle width="220" height="30" as="alternateBounds" />
          </mxGeometry>
        </mxCell>
        <mxCell id="AJokz3Rb2AiGmTEGyguJ-1" value="image" style="shape=partialRectangle;overflow=hidden;connectable=0;fillColor=none;top=0;left=0;bottom=1;right=0;align=center;spacingLeft=6;fontStyle=1;fontSize=13;" parent="1" vertex="1">
          <mxGeometry x="540" y="239.94" width="100" height="30" as="geometry">
            <mxRectangle width="220" height="30" as="alternateBounds" />
          </mxGeometry>
        </mxCell>
        <mxCell id="AJokz3Rb2AiGmTEGyguJ-2" value="img" style="shape=partialRectangle;overflow=hidden;connectable=0;fillColor=none;top=1;left=0;bottom=1;right=1;fontStyle=1;strokeColor=default;fontColor=default;" parent="1" vertex="1">
          <mxGeometry x="640" y="239.94" width="30" height="30" as="geometry">
            <mxRectangle width="30" height="30" as="alternateBounds" />
          </mxGeometry>
        </mxCell>
        <mxCell id="otEMqOQo-mVcsvNO3Phy-3" value="img" style="shape=partialRectangle;overflow=hidden;connectable=0;fillColor=none;top=0;left=0;bottom=1;right=1;fontStyle=1;strokeColor=default;fontColor=default;" parent="1" vertex="1">
          <mxGeometry x="433" y="306" width="30" height="32" as="geometry">
            <mxRectangle width="30" height="30" as="alternateBounds" />
          </mxGeometry>
        </mxCell>
        <mxCell id="nBtCZazPLFCXr5ZAJ3nB-2" value="" style="edgeStyle=orthogonalEdgeStyle;endArrow=ERzeroToMany;startArrow=ERone;endFill=0;startFill=0;strokeColor=default;labelBackgroundColor=default;fontColor=default;exitX=1;exitY=0.5;exitDx=0;exitDy=0;" parent="1" source="C-vyLk0tnHw3VtMMgP7b-24" target="s50UIAmwYVXwSAdXFC9_-6" edge="1">
          <mxGeometry width="100" height="100" relative="1" as="geometry">
            <mxPoint x="180" y="-90" as="sourcePoint" />
            <mxPoint x="272" y="125.02000000000024" as="targetPoint" />
            <Array as="points">
              <mxPoint x="230" y="75" />
              <mxPoint x="230" y="5" />
              <mxPoint x="20" y="5" />
              <mxPoint x="20" y="534" />
            </Array>
          </mxGeometry>
        </mxCell>
        <mxCell id="DGBplM3XuZjXBcAOkAxv-1" value="recipe" style="shape=partialRectangle;overflow=hidden;connectable=0;fillColor=none;top=0;left=0;bottom=1;right=0;align=center;spacingLeft=6;fontStyle=1;fontSize=13;" parent="1" vertex="1">
          <mxGeometry x="540" y="269.94" width="100" height="30" as="geometry">
            <mxRectangle width="220" height="30" as="alternateBounds" />
          </mxGeometry>
        </mxCell>
        <mxCell id="DGBplM3XuZjXBcAOkAxv-2" value="text" style="shape=partialRectangle;overflow=hidden;connectable=0;fillColor=none;top=1;left=0;bottom=1;right=1;fontStyle=1;strokeColor=default;fontColor=default;" parent="1" vertex="1">
          <mxGeometry x="640" y="270" width="30" height="30" as="geometry">
            <mxRectangle width="30" height="30" as="alternateBounds" />
          </mxGeometry>
        </mxCell>
        <mxCell id="DGBplM3XuZjXBcAOkAxv-3" value="ingredient" style="shape=partialRectangle;overflow=hidden;connectable=0;fillColor=none;top=0;left=0;bottom=1;right=0;align=center;spacingLeft=6;fontStyle=1;fontSize=13;" parent="1" vertex="1">
          <mxGeometry x="540" y="300" width="100" height="29.94" as="geometry">
            <mxRectangle width="220" height="30" as="alternateBounds" />
          </mxGeometry>
        </mxCell>
        <mxCell id="DGBplM3XuZjXBcAOkAxv-4" value="text" style="shape=partialRectangle;overflow=hidden;connectable=0;fillColor=none;top=1;left=0;bottom=1;right=1;fontStyle=1;strokeColor=default;fontColor=default;" parent="1" vertex="1">
          <mxGeometry x="640" y="299.94" width="30" height="30" as="geometry">
            <mxRectangle width="30" height="30" as="alternateBounds" />
          </mxGeometry>
        </mxCell>
        <mxCell id="xoWtz38FVFNAIIPRMvio-1" value="text" style="shape=partialRectangle;overflow=hidden;connectable=0;fillColor=none;top=1;left=0;bottom=1;right=1;fontStyle=1;strokeColor=default;fontColor=default;" parent="1" vertex="1">
          <mxGeometry x="197" y="549" width="30" height="30" as="geometry">
            <mxRectangle width="30" height="30" as="alternateBounds" />
          </mxGeometry>
        </mxCell>
        <mxCell id="c20E2mmuP79G2BphWOnT-1" value="target_calories" style="shape=partialRectangle;overflow=hidden;connectable=0;fillColor=none;top=0;left=0;bottom=1;right=0;align=center;spacingLeft=6;fontStyle=1;fontSize=13;strokeColor=default;fontColor=default;" parent="1" vertex="1">
          <mxGeometry x="91" y="398.63" width="120" height="28.31" as="geometry">
            <mxRectangle width="220" height="30" as="alternateBounds" />
          </mxGeometry>
        </mxCell>
        <mxCell id="c20E2mmuP79G2BphWOnT-2" value="int" style="shape=partialRectangle;overflow=hidden;connectable=0;fillColor=none;top=0;left=0;bottom=1;right=1;fontStyle=1;strokeColor=default;fontColor=default;" parent="1" vertex="1">
          <mxGeometry x="210" y="400.37" width="30" height="26.94" as="geometry">
            <mxRectangle width="30" height="30" as="alternateBounds" />
          </mxGeometry>
        </mxCell>
        <mxCell id="c20E2mmuP79G2BphWOnT-4" value="&lt;span style=&quot;font-family: &amp;#34;helvetica&amp;#34; ; font-size: 13px ; font-style: normal ; font-weight: 700 ; letter-spacing: normal ; text-indent: 0px ; text-transform: none ; word-spacing: 0px ; background-color: rgb(248 , 249 , 250) ; display: inline ; float: none&quot;&gt;count_all&lt;/span&gt;" style="rounded=0;whiteSpace=wrap;html=1;fillColor=none;strokeColor=default;fontColor=default;align=center;" parent="1" vertex="1">
          <mxGeometry x="333" y="624" width="100" height="30.06" as="geometry" />
        </mxCell>
        <mxCell id="c20E2mmuP79G2BphWOnT-5" value="int" style="shape=partialRectangle;overflow=hidden;connectable=0;fillColor=none;top=1;left=0;bottom=1;right=1;fontStyle=1;strokeColor=default;fontColor=default;" parent="1" vertex="1">
          <mxGeometry x="433" y="624" width="30" height="31" as="geometry">
            <mxRectangle width="30" height="30" as="alternateBounds" />
          </mxGeometry>
        </mxCell>
        <mxCell id="_5gQHLfuVpy6sTYe6dJD-1" value="" style="endArrow=none;html=1;rounded=0;" edge="1" parent="1">
          <mxGeometry width="50" height="50" relative="1" as="geometry">
            <mxPoint x="540" y="330" as="sourcePoint" />
            <mxPoint x="540" y="120" as="targetPoint" />
          </mxGeometry>
        </mxCell>
        <mxCell id="_5gQHLfuVpy6sTYe6dJD-2" value="" style="endArrow=none;html=1;rounded=0;entryX=0;entryY=0;entryDx=0;entryDy=0;" edge="1" parent="1" target="VAwe8sQhlcSzIPdgGldn-16">
          <mxGeometry width="50" height="50" relative="1" as="geometry">
            <mxPoint x="333" y="473.94" as="sourcePoint" />
            <mxPoint x="343" y="583.94" as="targetPoint" />
          </mxGeometry>
        </mxCell>
        <mxCell id="_5gQHLfuVpy6sTYe6dJD-3" value="" style="endArrow=none;html=1;rounded=0;entryX=0.202;entryY=1.002;entryDx=0;entryDy=0;entryPerimeter=0;" edge="1" parent="1">
          <mxGeometry width="50" height="50" relative="1" as="geometry">
            <mxPoint x="91" y="427" as="sourcePoint" />
            <mxPoint x="91.09799999999996" y="282.5000000000002" as="targetPoint" />
          </mxGeometry>
        </mxCell>
        <mxCell id="_5gQHLfuVpy6sTYe6dJD-4" value="TodayMenu" style="swimlane;fontStyle=1;align=center;verticalAlign=top;childLayout=stackLayout;horizontal=1;startSize=26;horizontalStack=0;resizeParent=1;resizeParentMax=0;resizeLast=0;collapsible=1;marginBottom=0;" vertex="1" parent="1">
          <mxGeometry x="524" y="357.94" width="159" height="86" as="geometry">
            <mxRectangle x="511" y="357.94" width="100" height="26" as="alternateBounds" />
          </mxGeometry>
        </mxCell>
        <mxCell id="_5gQHLfuVpy6sTYe6dJD-5" value="PK                   id" style="text;strokeColor=none;fillColor=none;align=left;verticalAlign=top;spacingLeft=4;spacingRight=4;overflow=hidden;rotatable=0;points=[[0,0.5],[1,0.5]];portConstraint=eastwest;fontStyle=1" vertex="1" parent="_5gQHLfuVpy6sTYe6dJD-4">
          <mxGeometry y="26" width="159" height="26" as="geometry" />
        </mxCell>
        <mxCell id="_5gQHLfuVpy6sTYe6dJD-6" value="" style="line;strokeWidth=1;fillColor=none;align=left;verticalAlign=middle;spacingTop=-1;spacingLeft=3;spacingRight=3;rotatable=0;labelPosition=right;points=[];portConstraint=eastwest;" vertex="1" parent="_5gQHLfuVpy6sTYe6dJD-4">
          <mxGeometry y="52" width="159" height="8" as="geometry" />
        </mxCell>
        <mxCell id="_5gQHLfuVpy6sTYe6dJD-7" value="FK              user_id" style="text;strokeColor=none;fillColor=none;align=left;verticalAlign=top;spacingLeft=4;spacingRight=4;overflow=hidden;rotatable=0;points=[[0,0.5],[1,0.5]];portConstraint=eastwest;fontStyle=1" vertex="1" parent="_5gQHLfuVpy6sTYe6dJD-4">
          <mxGeometry y="60" width="159" height="26" as="geometry" />
        </mxCell>
        <mxCell id="_5gQHLfuVpy6sTYe6dJD-10" value="" style="endArrow=none;html=1;rounded=0;entryX=0.23;entryY=0.996;entryDx=0;entryDy=0;entryPerimeter=0;" edge="1" parent="1">
          <mxGeometry width="50" height="50" relative="1" as="geometry">
            <mxPoint x="333" y="219" as="sourcePoint" />
            <mxPoint x="332.9" y="184.88" as="targetPoint" />
          </mxGeometry>
        </mxCell>
        <mxCell id="_5gQHLfuVpy6sTYe6dJD-12" value="&lt;b&gt;&amp;nbsp; &amp;nbsp; count&lt;/b&gt;" style="html=1;fillColor=none;" vertex="1" parent="1">
          <mxGeometry x="524" y="443.94" width="159" height="26.06" as="geometry" />
        </mxCell>
        <mxCell id="_5gQHLfuVpy6sTYe6dJD-16" value="&lt;b&gt;&amp;nbsp; &amp;nbsp; &amp;nbsp;date&lt;/b&gt;" style="html=1;fillColor=none;" vertex="1" parent="1">
          <mxGeometry x="524" y="470" width="159" height="26.06" as="geometry" />
        </mxCell>
        <mxCell id="_5gQHLfuVpy6sTYe6dJD-24" value="&lt;b&gt;&amp;nbsp; &amp;nbsp; &amp;nbsp;breakfast&lt;/b&gt;" style="html=1;fillColor=none;" vertex="1" parent="1">
          <mxGeometry x="524" y="496.06000000000006" width="159" height="26.06" as="geometry" />
        </mxCell>
        <mxCell id="_5gQHLfuVpy6sTYe6dJD-25" value="&lt;b&gt;&amp;nbsp; &amp;nbsp; &amp;nbsp;lunch&lt;/b&gt;" style="html=1;fillColor=none;" vertex="1" parent="1">
          <mxGeometry x="524" y="521.94" width="159" height="26.06" as="geometry" />
        </mxCell>
        <mxCell id="_5gQHLfuVpy6sTYe6dJD-26" value="&lt;b&gt;&amp;nbsp; &amp;nbsp; &amp;nbsp;dinner&lt;/b&gt;" style="html=1;fillColor=none;" vertex="1" parent="1">
          <mxGeometry x="524" y="548" width="159" height="26.06" as="geometry" />
        </mxCell>
        <mxCell id="_5gQHLfuVpy6sTYe6dJD-27" value="&lt;b&gt;&amp;nbsp; &amp;nbsp; &amp;nbsp;breakfast_other1&lt;/b&gt;&lt;span style=&quot;color: rgba(0 , 0 , 0 , 0) ; font-family: monospace ; font-size: 0px&quot;&gt;%3CmxGraphModel%3E%3Croot%3E%3CmxCell%20id%3D%220%22%2F%3E%3CmxCell%20id%3D%221%22%20parent%3D%220%22%2F%3E%3CmxCell%20id%3D%222%22%20value%3D%22%26lt%3Bb%26gt%3Bbreakfast%26lt%3B%2Fb%26gt%3B%22%20style%3D%22html%3D1%3BfillColor%3Dnone%3B%22%20vertex%3D%221%22%20parent%3D%221%22%3E%3CmxGeometry%20x%3D%22511%22%20y%3D%22496.06000000000006%22%20width%3D%22159%22%20height%3D%2226.06%22%20as%3D%22geometry%22%2F%3E%3C%2FmxCell%3E%3C%2Froot%3E%3C%2FmxGraphModel%3E&lt;/span&gt;" style="html=1;fillColor=none;" vertex="1" parent="1">
          <mxGeometry x="524" y="574.0600000000001" width="159" height="26.06" as="geometry" />
        </mxCell>
        <mxCell id="_5gQHLfuVpy6sTYe6dJD-28" value="&lt;b&gt;&amp;nbsp; &amp;nbsp; &amp;nbsp;breakfast_other2&lt;/b&gt;" style="html=1;fillColor=none;" vertex="1" parent="1">
          <mxGeometry x="524" y="600.1200000000001" width="159" height="26.06" as="geometry" />
        </mxCell>
        <mxCell id="_5gQHLfuVpy6sTYe6dJD-29" value="&lt;b&gt;&amp;nbsp; &amp;nbsp; &amp;nbsp;breakfast_other3&lt;/b&gt;&lt;span style=&quot;color: rgba(0 , 0 , 0 , 0) ; font-family: monospace ; font-size: 0px&quot;&gt;%3CmxGraphModel%3E%3Croot%3E%3CmxCell%20id%3D%220%22%2F%3E%3CmxCell%20id%3D%221%22%20parent%3D%220%22%2F%3E%3CmxCell%20id%3D%222%22%20value%3D%22%26lt%3Bb%26gt%3Bbreakfast_other2%26lt%3B%2Fb%26gt%3B%22%20style%3D%22html%3D1%3BfillColor%3Dnone%3B%22%20vertex%3D%221%22%20parent%3D%221%22%3E%3CmxGeometry%20x%3D%22511%22%20y%3D%22600.1200000000001%22%20width%3D%22159%22%20height%3D%2226.06%22%20as%3D%22geometry%22%2F%3E%3C%2FmxCell%3E%3C%2Froot%3E%3C%2FmxGraphModel%3E&lt;/span&gt;" style="html=1;fillColor=none;" vertex="1" parent="1">
          <mxGeometry x="524" y="626.4700000000001" width="159" height="26.06" as="geometry" />
        </mxCell>
        <mxCell id="_5gQHLfuVpy6sTYe6dJD-30" value="&lt;b&gt;&amp;nbsp; &amp;nbsp; &amp;nbsp;breakfast_other4&lt;/b&gt;&lt;span style=&quot;color: rgba(0 , 0 , 0 , 0) ; font-family: monospace ; font-size: 0px&quot;&gt;%3CmxGraphModel%3E%3Croot%3E%3CmxCell%20id%3D%220%22%2F%3E%3CmxCell%20id%3D%221%22%20parent%3D%220%22%2F%3E%3CmxCell%20id%3D%222%22%20value%3D%22%26lt%3Bb%26gt%3Bbreakfast_other2%26lt%3B%2Fb%26gt%3B%22%20style%3D%22html%3D1%3BfillColor%3Dnone%3B%22%20vertex%3D%221%22%20parent%3D%221%22%3E%3CmxGeometry%20x%3D%22511%22%20y%3D%22600.1200000000001%22%20width%3D%22159%22%20height%3D%2226.06%22%20as%3D%22geometry%22%2F%3E%3C%2FmxCell%3E%3C%2Froot%3E%3C%2FmxGraphModel%34&lt;/span&gt;" style="html=1;fillColor=none;" vertex="1" parent="1">
          <mxGeometry x="524" y="652.5300000000001" width="159" height="26.06" as="geometry" />
        </mxCell>
        <mxCell id="_5gQHLfuVpy6sTYe6dJD-31" value="&lt;b&gt;&amp;nbsp; &amp;nbsp; &amp;nbsp;lunch_other1&lt;/b&gt;&lt;span style=&quot;color: rgba(0 , 0 , 0 , 0) ; font-family: monospace ; font-size: 0px&quot;&gt;%3CmxGraphModel%3E%3Croot%3E%3CmxCell%20id%3D%220%22%2F%3E%3CmxCell%20id%3D%221%22%20parent%3D%220%22%2F%3E%3CmxCell%20id%3D%222%22%20value%3D%22%26lt%3Bb%26gt%3Bbreakfast_other2%26lt%3B%2Fb%26gt%3B%22%20style%3D%22html%3D1%3BfillColor%3Dnone%3B%22%20vertex%3D%221%22%20parent%3D%221%22%3E%3CmxGeometry%20x%3D%22511%22%20y%3D%22600.1200000000001%22%20width%3D%22159%22%20height%3D%2226.06%22%20as%3D%22geometry%22%2F%3E%3C%2FmxCell%3E%3C%2Froot%3E%3C%2FmxGraphModel%35&lt;/span&gt;" style="html=1;fillColor=none;" vertex="1" parent="1">
          <mxGeometry x="524" y="678.5900000000001" width="159" height="26.06" as="geometry" />
        </mxCell>
        <mxCell id="_5gQHLfuVpy6sTYe6dJD-32" value="&lt;b&gt;&amp;nbsp; &amp;nbsp; &amp;nbsp;lunch_other2&lt;/b&gt;&lt;span style=&quot;color: rgba(0 , 0 , 0 , 0) ; font-family: monospace ; font-size: 0px&quot;&gt;%3CmxGraphModel%3E%3Croot%3E%3CmxCell%20id%3D%220%22%2F%3E%3CmxCell%20id%3D%221%22%20parent%3D%220%22%2F%3E%3CmxCell%20id%3D%222%22%20value%3D%22%26lt%3Bb%26gt%3Bbreakfast_other2%26lt%3B%2Fb%26gt%3B%22%20style%3D%22html%3D1%3BfillColor%3Dnone%3B%22%20vertex%3D%221%22%20parent%3D%221%22%3E%3CmxGeometry%20x%3D%22511%22%20y%3D%22600.1200000000001%22%20width%3D%22159%22%20height%3D%2226.06%22%20as%3D%22geometry%22%2F%3E%3C%2FmxCell%3E%3C%2Froot%3E%3C%2FmxGraphModel%32&lt;/span&gt;" style="html=1;fillColor=none;" vertex="1" parent="1">
          <mxGeometry x="524" y="704.6500000000001" width="159" height="26.06" as="geometry" />
        </mxCell>
        <mxCell id="_5gQHLfuVpy6sTYe6dJD-33" value="&lt;b&gt;&amp;nbsp; &amp;nbsp; &amp;nbsp;lunch_other3&lt;/b&gt;&lt;span style=&quot;color: rgba(0 , 0 , 0 , 0) ; font-family: monospace ; font-size: 0px&quot;&gt;%3CmxGraphModel%3E%3Croot%3E%3CmxCell%20id%3D%220%22%2F%3E%3CmxCell%20id%3D%221%22%20parent%3D%220%22%2F%3E%3CmxCell%20id%3D%222%22%20value%3D%22%26lt%3Bb%26gt%3Bbreakfast_other2%26lt%3B%2Fb%26gt%3B%22%20style%3D%22html%3D1%3BfillColor%3Dnone%3B%22%20vertex%3D%221%22%20parent%3D%221%22%3E%3CmxGeometry%20x%3D%22511%22%20y%3D%22600.1200000000001%22%20width%3D%22159%22%20height%3D%2226.06%22%20as%3D%22geometry%22%2F%3E%3C%2FmxCell%3E%3C%2Froot%3E%3C%2FmxGraphModel%3&lt;/span&gt;" style="html=1;fillColor=none;" vertex="1" parent="1">
          <mxGeometry x="524" y="730.7100000000002" width="159" height="26.06" as="geometry" />
        </mxCell>
        <mxCell id="_5gQHLfuVpy6sTYe6dJD-34" value="&lt;b&gt;&amp;nbsp; &amp;nbsp; &amp;nbsp;lunch_other4&lt;/b&gt;&lt;span style=&quot;color: rgba(0 , 0 , 0 , 0) ; font-family: monospace ; font-size: 0px&quot;&gt;%3CmxGraphModel%3E%3Croot%3E%3CmxCell%20id%3D%220%22%2F%3E%3CmxCell%20id%3D%221%22%20parent%3D%220%22%2F%3E%3CmxCell%20id%3D%222%22%20value%3D%22%26lt%3Bb%26gt%3Bbreakfast_other2%26lt%3B%2Fb%26gt%3B%22%20style%3D%22html%3D1%3BfillColor%3Dnone%3B%22%20vertex%3D%221%22%20parent%3D%221%22%3E%3CmxGeometry%20x%3D%22511%22%20y%3D%22600.1200000000001%22%20width%3D%22159%22%20height%3D%2226.06%22%20as%3D%22geometry%22%2F%3E%3C%2FmxCell%3E%3C%2Froot%3E%3C%2FmxGraphModel%35&lt;/span&gt;" style="html=1;fillColor=none;" vertex="1" parent="1">
          <mxGeometry x="524" y="756.7700000000001" width="159" height="26.06" as="geometry" />
        </mxCell>
        <mxCell id="_5gQHLfuVpy6sTYe6dJD-35" value="&lt;b&gt;&amp;nbsp; &amp;nbsp; &amp;nbsp;dinner_other1&lt;/b&gt;&lt;span style=&quot;color: rgba(0 , 0 , 0 , 0) ; font-family: monospace ; font-size: 0px&quot;&gt;%3CmxGraphModel%3E%3Croot%3E%3CmxCell%20id%3D%220%22%2F%3E%3CmxCell%20id%3D%221%22%20parent%3D%220%22%2F%3E%3CmxCell%20id%3D%222%22%20value%3D%22%26lt%3Bb%26gt%3Bbreakfast_other2%26lt%3B%2Fb%26gt%3B%22%20style%3D%22html%3D1%3BfillColor%3Dnone%3B%22%20vertex%3D%221%22%20parent%3D%221%22%3E%3CmxGeometry%20x%3D%22511%22%20y%3D%22600.1200000000001%22%20width%3D%22159%22%20height%3D%2226.06%22%20as%3D%22geometry%22%2F%3E%3C%2FmxCell%3E%3C%2Froot%3E%3C%2FmxGraphModel%35&lt;/span&gt;" style="html=1;fillColor=none;" vertex="1" parent="1">
          <mxGeometry x="524" y="782.83" width="159" height="26.06" as="geometry" />
        </mxCell>
        <mxCell id="_5gQHLfuVpy6sTYe6dJD-36" value="&lt;b&gt;&amp;nbsp; &amp;nbsp; &amp;nbsp;dinner_other2&lt;/b&gt;&lt;span style=&quot;color: rgba(0 , 0 , 0 , 0) ; font-family: monospace ; font-size: 0px&quot;&gt;%3CmxGraphModel%3E%3Croot%3E%3CmxCell%20id%3D%220%22%2F%3E%3CmxCell%20id%3D%221%22%20parent%3D%220%22%2F%3E%3CmxCell%20id%3D%222%22%20value%3D%22%26lt%3Bb%26gt%3Bbreakfast_other2%26lt%3B%2Fb%26gt%3B%22%20style%3D%22html%3D1%3BfillColor%3Dnone%3B%22%20vertex%3D%221%22%20parent%3D%221%22%3E%3CmxGeometry%20x%3D%22511%22%20y%3D%22600.1200000000001%22%20width%3D%22159%22%20height%3D%2226.06%22%20as%3D%22geometry%22%2F%3E%3C%2FmxCell%3E%3C%2Froot%3E%3C%2FmxGraphModel%3&lt;/span&gt;" style="html=1;fillColor=none;" vertex="1" parent="1">
          <mxGeometry x="524" y="808.89" width="159" height="26.06" as="geometry" />
        </mxCell>
        <mxCell id="_5gQHLfuVpy6sTYe6dJD-37" value="&lt;b&gt;&amp;nbsp; &amp;nbsp; &amp;nbsp;dinner_other3&lt;/b&gt;&lt;span style=&quot;color: rgba(0 , 0 , 0 , 0) ; font-family: monospace ; font-size: 0px&quot;&gt;%3CmxGraphModel%3E%3Croot%3E%3CmxCell%20id%3D%220%22%2F%3E%3CmxCell%20id%3D%221%22%20parent%3D%220%22%2F%3E%3CmxCell%20id%3D%222%22%20value%3D%22%26lt%3Bb%26gt%3Bbreakfast_other2%26lt%3B%2Fb%26gt%3B%22%20style%3D%22html%3D1%3BfillColor%3Dnone%3B%22%20vertex%3D%221%22%20parent%3D%221%22%3E%3CmxGeometry%20x%3D%22511%22%20y%3D%22600.1200000000001%22%20width%3D%22159%22%20height%3D%2226.06%22%20as%3D%22geometry%22%2F%3E%3C%2FmxCell%3E%3C%2Froot%3E%3C%2FmxGraphModel%35&lt;/span&gt;" style="html=1;fillColor=none;" vertex="1" parent="1">
          <mxGeometry x="524" y="834.95" width="159" height="26.06" as="geometry" />
        </mxCell>
        <mxCell id="_5gQHLfuVpy6sTYe6dJD-38" value="&lt;b&gt;&amp;nbsp; &amp;nbsp; &amp;nbsp;dinner_other4&lt;/b&gt;&lt;span style=&quot;color: rgba(0 , 0 , 0 , 0) ; font-family: monospace ; font-size: 0px&quot;&gt;%3CmxGraphModel%3E%3Croot%3E%3CmxCell%20id%3D%220%22%2F%3E%3CmxCell%20id%3D%221%22%20parent%3D%220%22%2F%3E%3CmxCell%20id%3D%222%22%20value%3D%22%26lt%3Bb%26gt%3Bbreakfast_other2%26lt%3B%2Fb%26gt%3B%22%20style%3D%22html%3D1%3BfillColor%3Dnone%3B%22%20vertex%3D%221%22%20parent%3D%221%22%3E%3CmxGeometry%20x%3D%22511%22%20y%3D%22600.1200000000001%22%20width%3D%22159%22%20height%3D%2226.06%22%20as%3D%22geometry%22%2F%3E%3C%2FmxCell%3E%3C%2Froot%3E%3C%2FmxGraphModel%35&lt;/span&gt;" style="html=1;fillColor=none;" vertex="1" parent="1">
          <mxGeometry x="524" y="861.01" width="159" height="26.06" as="geometry" />
        </mxCell>
        <mxCell id="_5gQHLfuVpy6sTYe6dJD-40" value="" style="endArrow=none;html=1;rounded=0;entryX=0.171;entryY=0.005;entryDx=0;entryDy=0;entryPerimeter=0;exitX=0.171;exitY=0.998;exitDx=0;exitDy=0;exitPerimeter=0;" edge="1" parent="1" source="_5gQHLfuVpy6sTYe6dJD-38" target="_5gQHLfuVpy6sTYe6dJD-5">
          <mxGeometry width="50" height="50" relative="1" as="geometry">
            <mxPoint x="580" y="520" as="sourcePoint" />
            <mxPoint x="630" y="470" as="targetPoint" />
          </mxGeometry>
        </mxCell>
        <mxCell id="_5gQHLfuVpy6sTYe6dJD-41" value="&lt;b&gt;FK&lt;/b&gt;" style="rounded=0;whiteSpace=wrap;html=1;fillColor=none;strokeColor=none;" vertex="1" parent="1">
          <mxGeometry x="523" y="496.06" width="30" height="26.06" as="geometry" />
        </mxCell>
        <mxCell id="_5gQHLfuVpy6sTYe6dJD-42" value="&lt;b&gt;FK&lt;/b&gt;" style="rounded=0;whiteSpace=wrap;html=1;fillColor=none;strokeColor=none;" vertex="1" parent="1">
          <mxGeometry x="523" y="522.12" width="30" height="26.06" as="geometry" />
        </mxCell>
        <mxCell id="_5gQHLfuVpy6sTYe6dJD-43" value="&lt;b&gt;FK&lt;/b&gt;" style="rounded=0;whiteSpace=wrap;html=1;fillColor=none;strokeColor=none;" vertex="1" parent="1">
          <mxGeometry x="524" y="548" width="30" height="26.06" as="geometry" />
        </mxCell>
        <mxCell id="_5gQHLfuVpy6sTYe6dJD-44" value="&lt;b&gt;FK&lt;/b&gt;" style="rounded=0;whiteSpace=wrap;html=1;fillColor=none;strokeColor=none;" vertex="1" parent="1">
          <mxGeometry x="529" y="574.06" width="20" height="26.06" as="geometry" />
        </mxCell>
        <mxCell id="_5gQHLfuVpy6sTYe6dJD-45" value="&lt;b&gt;FK&lt;/b&gt;" style="rounded=0;whiteSpace=wrap;html=1;fillColor=none;strokeColor=none;" vertex="1" parent="1">
          <mxGeometry x="524" y="600.41" width="30" height="26.06" as="geometry" />
        </mxCell>
        <mxCell id="_5gQHLfuVpy6sTYe6dJD-46" value="&lt;b&gt;FK&lt;/b&gt;" style="rounded=0;whiteSpace=wrap;html=1;fillColor=none;strokeColor=none;" vertex="1" parent="1">
          <mxGeometry x="524" y="626.4699999999999" width="30" height="26.06" as="geometry" />
        </mxCell>
        <mxCell id="_5gQHLfuVpy6sTYe6dJD-47" value="&lt;b&gt;FK&lt;/b&gt;" style="rounded=0;whiteSpace=wrap;html=1;fillColor=none;strokeColor=none;" vertex="1" parent="1">
          <mxGeometry x="523" y="652.53" width="30" height="26.06" as="geometry" />
        </mxCell>
        <mxCell id="_5gQHLfuVpy6sTYe6dJD-48" value="&lt;b&gt;FK&lt;/b&gt;" style="rounded=0;whiteSpace=wrap;html=1;fillColor=none;strokeColor=none;" vertex="1" parent="1">
          <mxGeometry x="524" y="680" width="30" height="26.06" as="geometry" />
        </mxCell>
        <mxCell id="_5gQHLfuVpy6sTYe6dJD-49" value="&lt;b&gt;FK&lt;/b&gt;" style="rounded=0;whiteSpace=wrap;html=1;fillColor=none;strokeColor=none;" vertex="1" parent="1">
          <mxGeometry x="524" y="704.65" width="30" height="26.06" as="geometry" />
        </mxCell>
        <mxCell id="_5gQHLfuVpy6sTYe6dJD-50" value="&lt;b&gt;FK&lt;/b&gt;" style="rounded=0;whiteSpace=wrap;html=1;fillColor=none;strokeColor=none;" vertex="1" parent="1">
          <mxGeometry x="524" y="730.7099999999999" width="30" height="26.06" as="geometry" />
        </mxCell>
        <mxCell id="_5gQHLfuVpy6sTYe6dJD-51" value="&lt;b&gt;FK&lt;/b&gt;" style="rounded=0;whiteSpace=wrap;html=1;fillColor=none;strokeColor=none;" vertex="1" parent="1">
          <mxGeometry x="524" y="756.77" width="30" height="26.06" as="geometry" />
        </mxCell>
        <mxCell id="_5gQHLfuVpy6sTYe6dJD-52" value="&lt;b&gt;FK&lt;/b&gt;" style="rounded=0;whiteSpace=wrap;html=1;fillColor=none;strokeColor=none;" vertex="1" parent="1">
          <mxGeometry x="524" y="782.8299999999999" width="30" height="26.06" as="geometry" />
        </mxCell>
        <mxCell id="_5gQHLfuVpy6sTYe6dJD-53" value="&lt;b&gt;FK&lt;/b&gt;" style="rounded=0;whiteSpace=wrap;html=1;fillColor=none;strokeColor=none;" vertex="1" parent="1">
          <mxGeometry x="523" y="810" width="30" height="26.06" as="geometry" />
        </mxCell>
        <mxCell id="_5gQHLfuVpy6sTYe6dJD-54" value="&lt;b&gt;FK&lt;/b&gt;" style="rounded=0;whiteSpace=wrap;html=1;fillColor=none;strokeColor=none;" vertex="1" parent="1">
          <mxGeometry x="524" y="834.9499999999999" width="30" height="26.06" as="geometry" />
        </mxCell>
        <mxCell id="_5gQHLfuVpy6sTYe6dJD-55" value="&lt;b&gt;FK&lt;/b&gt;" style="rounded=0;whiteSpace=wrap;html=1;fillColor=none;strokeColor=none;" vertex="1" parent="1">
          <mxGeometry x="522" y="861.01" width="30" height="26.06" as="geometry" />
        </mxCell>
        <mxCell id="_5gQHLfuVpy6sTYe6dJD-56" value="int" style="shape=partialRectangle;overflow=hidden;connectable=0;fillColor=none;top=1;left=0;bottom=1;right=1;fontStyle=1;strokeColor=default;fontColor=default;" vertex="1" parent="1">
          <mxGeometry x="683" y="444" width="30" height="26" as="geometry">
            <mxRectangle width="30" height="30" as="alternateBounds" />
          </mxGeometry>
        </mxCell>
        <mxCell id="_5gQHLfuVpy6sTYe6dJD-57" value="date" style="shape=partialRectangle;overflow=hidden;connectable=0;fillColor=none;top=1;left=0;bottom=1;right=1;fontStyle=1;strokeColor=default;fontColor=default;" vertex="1" parent="1">
          <mxGeometry x="683" y="470" width="30" height="26" as="geometry">
            <mxRectangle width="30" height="30" as="alternateBounds" />
          </mxGeometry>
        </mxCell>
        <mxCell id="_5gQHLfuVpy6sTYe6dJD-58" value="" style="edgeStyle=orthogonalEdgeStyle;endArrow=ERzeroToMany;startArrow=ERone;endFill=0;startFill=0;strokeColor=default;labelBackgroundColor=default;fontColor=default;exitX=1.004;exitY=0.186;exitDx=0;exitDy=0;entryX=0;entryY=0.5;entryDx=0;entryDy=0;exitPerimeter=0;" edge="1" parent="1" source="C-vyLk0tnHw3VtMMgP7b-24" target="_5gQHLfuVpy6sTYe6dJD-7">
          <mxGeometry width="100" height="100" relative="1" as="geometry">
            <mxPoint x="201.52999999999977" y="89.06000000000003" as="sourcePoint" />
            <mxPoint x="71.52999999999977" y="548.1788235294117" as="targetPoint" />
            <Array as="points">
              <mxPoint x="220" y="66" />
              <mxPoint x="220" y="19" />
              <mxPoint x="31" y="19" />
              <mxPoint x="31" y="710" />
              <mxPoint x="480" y="710" />
              <mxPoint x="480" y="431" />
            </Array>
          </mxGeometry>
        </mxCell>
        <mxCell id="_5gQHLfuVpy6sTYe6dJD-60" value="" style="edgeStyle=orthogonalEdgeStyle;endArrow=ERzeroToMany;startArrow=ERone;endFill=0;startFill=0;strokeColor=default;labelBackgroundColor=default;fontColor=default;entryX=0.562;entryY=0.499;entryDx=0;entryDy=0;entryPerimeter=0;" edge="1" parent="1" target="_5gQHLfuVpy6sTYe6dJD-61">
          <mxGeometry width="100" height="100" relative="1" as="geometry">
            <mxPoint x="641" y="81.99999999999989" as="sourcePoint" />
            <mxPoint x="511" y="880.5550000000001" as="targetPoint" />
            <Array as="points">
              <mxPoint x="681" y="82" />
              <mxPoint x="681" y="22" />
              <mxPoint x="771" y="22" />
              <mxPoint x="771" y="910" />
              <mxPoint x="441" y="910" />
              <mxPoint x="441" y="881" />
              <mxPoint x="490" y="881" />
              <mxPoint x="490" y="690" />
            </Array>
          </mxGeometry>
        </mxCell>
        <mxCell id="_5gQHLfuVpy6sTYe6dJD-61" value="" style="strokeWidth=1;html=1;shape=mxgraph.flowchart.annotation_2;align=left;labelPosition=right;pointerEvents=1;fillColor=none;" vertex="1" parent="1">
          <mxGeometry x="510" y="511.03" width="14" height="358.97" as="geometry" />
        </mxCell>
      </root>
    </mxGraphModel>
  </diagram>
</mxfile>
